# xmcd
#
# Track frame offsets:
# 150
# 15831
# 33806
# 47694
# 65581
# 82781
# 101846
# 115301
# 133939
# 153291
# 168191
# 184659
# 202329
# 218934
#
# Disc length: 3158 seconds
#
#
# Revision: 1
# Processed by: cddbd v1.5.2PL0 Copyright (c) Steve Scherf et al.
# Submitted via: FreeRIP 2.96 
#
DISCID=b80c540e
DTITLE=Leandro e Leonardo - Encontros Sertanejos
DYEAR=2006
DGENRE=Country
TTITLE0=Cerveja
TTITLE1=Rumo a Goiânia
TTITLE2=Não Aprendi a Dizer Adeus
TTITLE3=Horizonte Azul
TTITLE4=Doce Mistério
TTITLE5=Eu Juro
TTITLE6=Cadê Você
TTITLE7=Desculpe, Mas Eu Vou Chorar
TTITLE8=Talismã
TTITLE9=Entre Tapas e Beijos
TTITLE10=Pense em Mim
TTITLE11=Solidão
TTITLE12=Diz pra Mim
TTITLE13=Festa de Rodeio
EXTD=Ano 2006 - M.P.A.
EXTT0=
EXTT1=
EXTT2=
EXTT3=
EXTT4=
EXTT5=
EXTT6=
EXTT7=
EXTT8=
EXTT9=
EXTT10=
EXTT11=
EXTT12=
EXTT13=
PLAYORDER=
